# xmcd CD database file
#
# Track frame offsets:
#	150
#	146325
#	204378
#	238235
#
# Disc length: 3459 seconds
#
# Revision: 1
# Processed by: cddbd v1.5.2PL0 Copyright (c) Steve Scherf et al.
# Submitted via: CDex 1.70beta3
#
DISCID=330d8104
DTITLE=Kanon - Beauty is the thing
DYEAR=2011
DGENRE=Jazz
TTITLE0=A break into the clouds
TTITLE1=Hear it very close
TTITLE2=An aquatic plant
TTITLE3=That sense of curving
EXTD=YEAR: 2011
EXTT0=
EXTT1=
EXTT2=
EXTT3=
PLAYORDER=
